<mxfile host="app.diagrams.net" modified="2022-05-16T11:11:17.701Z" agent="5.0 (Windows NT 10.0; Win64; x64) AppleWebKit/537.36 (KHTML, like Gecko) Chrome/97.0.4692.99 Safari/537.36" etag="M3NX8eg48OaKirtmwTIr" version="16.5.6" type="github">
  <diagram id="C5RBs43oDa-KdzZeNtuy" name="Page-1">
    <mxGraphModel dx="1483" dy="747" grid="1" gridSize="10" guides="1" tooltips="1" connect="1" arrows="1" fold="1" page="1" pageScale="1" pageWidth="827" pageHeight="1169" background="none" math="1" shadow="0">
      <root>
        <mxCell id="WIyWlLk6GJQsqaUBKTNV-0" />
        <mxCell id="WIyWlLk6GJQsqaUBKTNV-1" parent="WIyWlLk6GJQsqaUBKTNV-0" />
        <mxCell id="vNBRACOSQl8gZA7YlkAR-64" value="" style="edgeStyle=orthogonalEdgeStyle;rounded=0;sketch=1;orthogonalLoop=1;jettySize=auto;html=1;fontSize=14;labelBackgroundColor=#EEEEEE;strokeColor=#182E3E;fontColor=#1A1A1A;" edge="1" parent="WIyWlLk6GJQsqaUBKTNV-1" source="vNBRACOSQl8gZA7YlkAR-45" target="vNBRACOSQl8gZA7YlkAR-48">
          <mxGeometry relative="1" as="geometry" />
        </mxCell>
        <mxCell id="vNBRACOSQl8gZA7YlkAR-45" value="$$F,L,s$$" style="shape=parallelogram;perimeter=parallelogramPerimeter;whiteSpace=wrap;html=1;fixedSize=1;rounded=0;sketch=1;fontColor=#1A1A1A;strokeColor=#909090;fillColor=#F5AB50;" vertex="1" parent="WIyWlLk6GJQsqaUBKTNV-1">
          <mxGeometry x="110" y="120" width="130" height="40" as="geometry" />
        </mxCell>
        <mxCell id="vNBRACOSQl8gZA7YlkAR-72" value="" style="edgeStyle=orthogonalEdgeStyle;rounded=0;sketch=1;orthogonalLoop=1;jettySize=auto;html=1;fontSize=14;labelBackgroundColor=#EEEEEE;strokeColor=#182E3E;fontColor=#1A1A1A;" edge="1" parent="WIyWlLk6GJQsqaUBKTNV-1" source="vNBRACOSQl8gZA7YlkAR-46" target="vNBRACOSQl8gZA7YlkAR-47">
          <mxGeometry relative="1" as="geometry" />
        </mxCell>
        <mxCell id="vNBRACOSQl8gZA7YlkAR-46" value="&lt;font style=&quot;font-size: 14px&quot;&gt;$$输出&lt;br&gt;S$$&lt;/font&gt;" style="shape=parallelogram;perimeter=parallelogramPerimeter;whiteSpace=wrap;html=1;fixedSize=1;rounded=0;sketch=1;fontColor=#1A1A1A;strokeColor=#909090;fillColor=#F5AB50;" vertex="1" parent="WIyWlLk6GJQsqaUBKTNV-1">
          <mxGeometry x="115" y="547" width="120" height="50" as="geometry" />
        </mxCell>
        <mxCell id="vNBRACOSQl8gZA7YlkAR-47" value="结束" style="rounded=1;whiteSpace=wrap;html=1;fontSize=12;glass=0;strokeWidth=1;shadow=0;sketch=1;fillColor=#F5AB50;strokeColor=#909090;fontColor=#1A1A1A;" vertex="1" parent="WIyWlLk6GJQsqaUBKTNV-1">
          <mxGeometry x="130" y="630" width="90" height="40" as="geometry" />
        </mxCell>
        <mxCell id="vNBRACOSQl8gZA7YlkAR-65" value="" style="edgeStyle=orthogonalEdgeStyle;rounded=0;sketch=1;orthogonalLoop=1;jettySize=auto;html=1;fontSize=14;labelBackgroundColor=#EEEEEE;strokeColor=#182E3E;fontColor=#1A1A1A;" edge="1" parent="WIyWlLk6GJQsqaUBKTNV-1" source="vNBRACOSQl8gZA7YlkAR-48" target="vNBRACOSQl8gZA7YlkAR-51">
          <mxGeometry relative="1" as="geometry" />
        </mxCell>
        <mxCell id="vNBRACOSQl8gZA7YlkAR-48" value="$$S=\emptyset,k=0$$" style="shape=hexagon;perimeter=hexagonPerimeter2;whiteSpace=wrap;html=1;fixedSize=1;rounded=0;sketch=1;fontColor=#1A1A1A;strokeColor=#909090;fillColor=#F5AB50;" vertex="1" parent="WIyWlLk6GJQsqaUBKTNV-1">
          <mxGeometry x="105" y="190" width="140" height="50" as="geometry" />
        </mxCell>
        <mxCell id="vNBRACOSQl8gZA7YlkAR-66" value="" style="edgeStyle=orthogonalEdgeStyle;rounded=0;sketch=1;orthogonalLoop=1;jettySize=auto;html=1;fontSize=14;labelBackgroundColor=#EEEEEE;strokeColor=#182E3E;fontColor=#1A1A1A;" edge="1" parent="WIyWlLk6GJQsqaUBKTNV-1" source="vNBRACOSQl8gZA7YlkAR-51" target="vNBRACOSQl8gZA7YlkAR-57">
          <mxGeometry relative="1" as="geometry" />
        </mxCell>
        <mxCell id="vNBRACOSQl8gZA7YlkAR-51" value="&lt;span style=&quot;color: rgb(26 , 26 , 26)&quot;&gt;执行一次SFS算法&lt;/span&gt;" style="shape=process;whiteSpace=wrap;html=1;backgroundOutline=1;sketch=1;fillColor=#F5AB50;strokeColor=#909090;fontColor=#1A1A1A;" vertex="1" parent="WIyWlLk6GJQsqaUBKTNV-1">
          <mxGeometry x="103" y="270" width="145" height="40" as="geometry" />
        </mxCell>
        <mxCell id="vNBRACOSQl8gZA7YlkAR-68" value="" style="edgeStyle=orthogonalEdgeStyle;rounded=0;sketch=1;orthogonalLoop=1;jettySize=auto;html=1;fontSize=14;labelBackgroundColor=#EEEEEE;strokeColor=#182E3E;fontColor=#1A1A1A;" edge="1" parent="WIyWlLk6GJQsqaUBKTNV-1" source="vNBRACOSQl8gZA7YlkAR-54" target="vNBRACOSQl8gZA7YlkAR-46">
          <mxGeometry relative="1" as="geometry" />
        </mxCell>
        <mxCell id="vNBRACOSQl8gZA7YlkAR-73" value="" style="edgeStyle=orthogonalEdgeStyle;rounded=0;sketch=1;orthogonalLoop=1;jettySize=auto;html=1;fontSize=14;labelBackgroundColor=#EEEEEE;strokeColor=#182E3E;fontColor=#1A1A1A;" edge="1" parent="WIyWlLk6GJQsqaUBKTNV-1" source="vNBRACOSQl8gZA7YlkAR-54" target="vNBRACOSQl8gZA7YlkAR-58">
          <mxGeometry relative="1" as="geometry" />
        </mxCell>
        <mxCell id="vNBRACOSQl8gZA7YlkAR-54" value="$$k&amp;gt;s?$$" style="rhombus;whiteSpace=wrap;html=1;sketch=1;fillColor=#F5AB50;strokeColor=#909090;fontColor=#1A1A1A;" vertex="1" parent="WIyWlLk6GJQsqaUBKTNV-1">
          <mxGeometry x="135" y="440" width="80" height="80" as="geometry" />
        </mxCell>
        <mxCell id="vNBRACOSQl8gZA7YlkAR-67" value="" style="edgeStyle=orthogonalEdgeStyle;rounded=0;sketch=1;orthogonalLoop=1;jettySize=auto;html=1;fontSize=14;labelBackgroundColor=#EEEEEE;strokeColor=#182E3E;fontColor=#1A1A1A;" edge="1" parent="WIyWlLk6GJQsqaUBKTNV-1" source="vNBRACOSQl8gZA7YlkAR-57" target="vNBRACOSQl8gZA7YlkAR-54">
          <mxGeometry relative="1" as="geometry" />
        </mxCell>
        <mxCell id="vNBRACOSQl8gZA7YlkAR-57" value="$$S=S_k,J(S_k),k=k+1$$" style="rounded=0;whiteSpace=wrap;html=1;sketch=1;fillColor=#F5AB50;strokeColor=#909090;fontColor=#1A1A1A;" vertex="1" parent="WIyWlLk6GJQsqaUBKTNV-1">
          <mxGeometry x="87.5" y="346" width="175" height="60" as="geometry" />
        </mxCell>
        <mxCell id="vNBRACOSQl8gZA7YlkAR-74" value="" style="edgeStyle=orthogonalEdgeStyle;rounded=0;sketch=1;orthogonalLoop=1;jettySize=auto;html=1;fontSize=14;labelBackgroundColor=#EEEEEE;strokeColor=#182E3E;fontColor=#1A1A1A;" edge="1" parent="WIyWlLk6GJQsqaUBKTNV-1" source="vNBRACOSQl8gZA7YlkAR-58" target="vNBRACOSQl8gZA7YlkAR-59">
          <mxGeometry relative="1" as="geometry" />
        </mxCell>
        <mxCell id="vNBRACOSQl8gZA7YlkAR-58" value="执行一次SBS算法剔除$$f_r,计算J(S_k)^{&#39;}$$" style="shape=process;whiteSpace=wrap;html=1;backgroundOutline=1;sketch=1;fillColor=#F5AB50;strokeColor=#909090;fontColor=#1A1A1A;" vertex="1" parent="WIyWlLk6GJQsqaUBKTNV-1">
          <mxGeometry x="311.25" y="445" width="170" height="70" as="geometry" />
        </mxCell>
        <mxCell id="vNBRACOSQl8gZA7YlkAR-75" value="" style="edgeStyle=orthogonalEdgeStyle;rounded=0;sketch=1;orthogonalLoop=1;jettySize=auto;html=1;fontSize=14;labelBackgroundColor=#EEEEEE;strokeColor=#182E3E;fontColor=#1A1A1A;" edge="1" parent="WIyWlLk6GJQsqaUBKTNV-1" source="vNBRACOSQl8gZA7YlkAR-59" target="vNBRACOSQl8gZA7YlkAR-62">
          <mxGeometry relative="1" as="geometry" />
        </mxCell>
        <mxCell id="vNBRACOSQl8gZA7YlkAR-80" value="" style="edgeStyle=orthogonalEdgeStyle;rounded=0;sketch=1;orthogonalLoop=1;jettySize=auto;html=1;fontSize=14;labelBackgroundColor=#EEEEEE;strokeColor=#182E3E;fontColor=#1A1A1A;" edge="1" parent="WIyWlLk6GJQsqaUBKTNV-1" source="vNBRACOSQl8gZA7YlkAR-59" target="vNBRACOSQl8gZA7YlkAR-61">
          <mxGeometry relative="1" as="geometry" />
        </mxCell>
        <mxCell id="vNBRACOSQl8gZA7YlkAR-59" value="$$J(S_k)^{&#39;} &amp;gt; J(S_k),k&amp;gt;2?$$" style="rhombus;whiteSpace=wrap;html=1;sketch=1;fillColor=#F5AB50;strokeColor=#909090;fontColor=#1A1A1A;" vertex="1" parent="WIyWlLk6GJQsqaUBKTNV-1">
          <mxGeometry x="300" y="331" width="192.5" height="90" as="geometry" />
        </mxCell>
        <mxCell id="vNBRACOSQl8gZA7YlkAR-82" style="edgeStyle=orthogonalEdgeStyle;rounded=0;sketch=1;orthogonalLoop=1;jettySize=auto;html=1;entryX=1;entryY=0.5;entryDx=0;entryDy=0;fontSize=14;labelBackgroundColor=#EEEEEE;strokeColor=#182E3E;fontColor=#1A1A1A;" edge="1" parent="WIyWlLk6GJQsqaUBKTNV-1" source="vNBRACOSQl8gZA7YlkAR-61" target="vNBRACOSQl8gZA7YlkAR-58">
          <mxGeometry relative="1" as="geometry">
            <Array as="points">
              <mxPoint x="584" y="480" />
            </Array>
          </mxGeometry>
        </mxCell>
        <mxCell id="vNBRACOSQl8gZA7YlkAR-61" value="$$k=k-1$$" style="rounded=0;whiteSpace=wrap;html=1;sketch=1;fillColor=#F5AB50;strokeColor=#909090;fontColor=#1A1A1A;" vertex="1" parent="WIyWlLk6GJQsqaUBKTNV-1">
          <mxGeometry x="530" y="356" width="107.5" height="40" as="geometry" />
        </mxCell>
        <mxCell id="vNBRACOSQl8gZA7YlkAR-77" style="edgeStyle=orthogonalEdgeStyle;rounded=0;sketch=1;orthogonalLoop=1;jettySize=auto;html=1;entryX=1;entryY=0.5;entryDx=0;entryDy=0;fontSize=14;labelBackgroundColor=#EEEEEE;strokeColor=#182E3E;fontColor=#1A1A1A;" edge="1" parent="WIyWlLk6GJQsqaUBKTNV-1" source="vNBRACOSQl8gZA7YlkAR-62" target="vNBRACOSQl8gZA7YlkAR-51">
          <mxGeometry relative="1" as="geometry" />
        </mxCell>
        <mxCell id="vNBRACOSQl8gZA7YlkAR-62" value="&lt;font style=&quot;font-size: 14px&quot;&gt;$$退回f_r$$&lt;/font&gt;" style="shape=process;whiteSpace=wrap;html=1;backgroundOutline=1;sketch=1;fillColor=#F5AB50;strokeColor=#909090;fontColor=#1A1A1A;" vertex="1" parent="WIyWlLk6GJQsqaUBKTNV-1">
          <mxGeometry x="342.5" y="270" width="107.5" height="40" as="geometry" />
        </mxCell>
        <mxCell id="vNBRACOSQl8gZA7YlkAR-71" style="edgeStyle=orthogonalEdgeStyle;rounded=0;sketch=1;orthogonalLoop=1;jettySize=auto;html=1;entryX=0.5;entryY=0;entryDx=0;entryDy=0;fontSize=14;labelBackgroundColor=#EEEEEE;strokeColor=#182E3E;fontColor=#1A1A1A;" edge="1" parent="WIyWlLk6GJQsqaUBKTNV-1" source="vNBRACOSQl8gZA7YlkAR-69" target="vNBRACOSQl8gZA7YlkAR-45">
          <mxGeometry relative="1" as="geometry" />
        </mxCell>
        <mxCell id="vNBRACOSQl8gZA7YlkAR-69" value="开始" style="rounded=1;whiteSpace=wrap;html=1;fontSize=12;glass=0;strokeWidth=1;shadow=0;sketch=1;fillColor=#F5AB50;strokeColor=#909090;fontColor=#1A1A1A;" vertex="1" parent="WIyWlLk6GJQsqaUBKTNV-1">
          <mxGeometry x="130" y="50" width="90" height="40" as="geometry" />
        </mxCell>
      </root>
    </mxGraphModel>
  </diagram>
</mxfile>
